<?xml version="1.0" standalone="no"?>
<!DOCTYPE svg PUBLIC "-//W3C//DTD SVG 20010904//EN"
 "http://www.w3.org/TR/2001/REC-SVG-20010904/DTD/svg10.dtd">
<svg version="1.0" xmlns="http://www.w3.org/2000/svg"
 width="569.000000pt" height="561.000000pt" viewBox="0 0 569.000000 561.000000"
 preserveAspectRatio="xMidYMid meet">

<g transform="translate(0.000000,561.000000) scale(0.100000,-0.100000)"
fill="#000000" stroke="none">
<path d="M2285 5313 c-87 -57 -219 -176 -404 -363 -225 -227 -349 -382 -376
-471 -4 -13 -11 -28 -15 -34 -12 -16 -40 -150 -40 -192 0 -46 25 -155 46 -203
18 -43 41 -88 125 -250 35 -69 72 -149 82 -177 23 -69 40 -210 29 -248 -8 -26
-10 -19 -21 55 -16 110 -47 177 -116 249 -101 106 -222 146 -375 123 -152 -22
-320 -135 -416 -280 -83 -124 -142 -352 -130 -500 13 -164 76 -315 176 -425
34 -37 72 -72 84 -78 17 -10 19 -9 9 2 -22 23 -15 66 13 88 33 26 58 27 84 1
43 -43 12 -113 -51 -113 -30 0 -30 -1 -13 -14 39 -29 131 -80 179 -98 95 -37
140 -46 261 -52 140 -6 203 7 295 63 64 38 85 43 74 17 -4 -10 -10 -63 -12
-118 -5 -101 9 -208 41 -325 56 -205 60 -227 60 -335 1 -94 -3 -118 -22 -161
-56 -125 -196 -192 -308 -149 -58 22 -119 76 -146 129 -30 57 -31 157 -2 211
50 96 158 134 223 79 56 -47 36 -134 -34 -149 -14 -3 -36 -7 -49 -10 -26 -5
-42 -33 -27 -48 5 -5 29 -9 54 -9 137 0 227 148 168 277 -49 108 -193 143
-329 80 -101 -47 -172 -138 -203 -259 -15 -60 -6 -187 16 -241 96 -226 348
-342 587 -271 199 61 319 194 348 388 11 76 11 99 -9 229 -12 79 -30 189 -41
244 -11 55 -19 119 -20 143 0 90 53 159 147 189 92 29 88 44 88 -375 0 -333 2
-362 21 -427 40 -134 71 -202 167 -371 102 -179 119 -270 73 -371 -40 -85
-138 -132 -252 -120 -70 7 -120 32 -158 80 -58 73 -46 215 25 283 26 25 38 29
89 29 67 0 101 -23 120 -82 22 -65 -6 -115 -83 -147 -27 -11 -38 -21 -35 -33
2 -14 15 -19 54 -21 45 -3 56 1 94 30 65 50 82 88 78 175 -3 60 -8 79 -33 115
-42 60 -101 88 -187 88 -176 0 -300 -102 -328 -271 -22 -127 22 -255 115 -337
122 -108 331 -130 484 -52 138 70 210 199 211 376 0 96 -13 164 -65 329 -75
241 -79 265 -79 430 0 118 5 169 22 240 47 197 112 305 184 305 65 0 114 -56
159 -183 40 -112 62 -242 62 -367 0 -120 -18 -216 -69 -381 -72 -228 -78 -258
-78 -369 0 -79 4 -117 19 -155 42 -110 103 -178 200 -225 211 -101 467 -26
561 166 26 53 29 69 29 159 0 84 -4 108 -23 148 -56 119 -165 188 -295 188
-86 0 -112 -8 -162 -52 -87 -76 -99 -209 -28 -296 29 -34 85 -63 125 -63 83 0
91 28 17 61 -55 25 -79 58 -79 109 0 95 111 153 196 101 42 -26 84 -111 84
-171 0 -69 -41 -144 -96 -176 -95 -56 -239 -39 -314 36 -40 40 -70 112 -70
168 0 54 43 166 133 342 51 102 94 203 113 265 l29 100 0 340 c1 280 3 344 15
363 29 45 80 39 160 -19 62 -45 73 -76 67 -188 -2 -53 -10 -116 -16 -141 -50
-204 -64 -386 -38 -487 25 -94 59 -154 124 -214 76 -70 159 -113 255 -133 97
-20 122 -20 211 0 95 22 158 55 225 117 68 65 99 119 123 209 23 87 24 126 4
203 -24 92 -70 158 -149 216 -43 32 -61 37 -53 15 8 -21 -16 -49 -39 -45 -30
6 -32 55 -2 65 21 7 20 9 -17 20 -114 35 -223 -5 -272 -100 -26 -50 -20 -139
11 -186 50 -76 151 -118 203 -85 l27 18 -23 18 c-13 11 -36 19 -51 19 -59 0
-106 71 -79 122 51 100 199 65 254 -61 8 -18 15 -61 15 -95 0 -49 -6 -71 -30
-114 -72 -125 -206 -164 -331 -95 -144 78 -179 257 -103 528 65 230 82 373 61
514 l-8 53 33 -20 c18 -12 62 -36 98 -54 l65 -33 150 1 c140 0 156 2 236 30
89 32 195 87 241 126 15 13 42 35 61 50 42 33 120 135 154 201 53 106 67 172
68 322 0 162 -18 240 -87 377 -137 271 -406 428 -623 363 -111 -33 -212 -107
-262 -192 -27 -47 -63 -168 -63 -215 0 -15 -4 -28 -10 -28 -16 0 -12 134 6
205 16 65 44 125 151 325 73 135 100 217 109 320 17 208 -64 359 -355 665 -37
39 -96 106 -131 150 -95 119 -200 225 -223 225 -17 0 -19 -5 -14 -43 14 -104
203 -506 301 -642 77 -106 93 -141 112 -232 22 -103 9 -159 -74 -321 -133
-260 -150 -299 -166 -369 -20 -91 -20 -178 0 -323 19 -135 14 -194 -22 -267
-32 -66 -76 -100 -145 -115 -66 -13 -123 0 -169 38 -52 44 -55 59 -21 103 45
57 53 86 46 171 l-6 75 105 103 c89 86 111 115 146 185 143 291 126 646 -43
897 -48 71 -157 182 -221 224 -182 121 -375 169 -584 146 -392 -43 -679 -298
-758 -673 -23 -110 -19 -287 10 -400 44 -171 101 -270 231 -395 l95 -92 -6
-73 c-7 -83 4 -131 43 -177 24 -29 24 -30 6 -60 -50 -85 -230 -96 -302 -19
-67 71 -80 156 -57 372 25 236 6 322 -122 550 -74 132 -83 151 -115 242 -17
48 -22 83 -22 170 0 103 2 114 32 177 30 63 77 139 105 170 14 14 42 49 179
218 159 195 289 388 289 426 0 22 -32 16 -75 -13z m-1231 -1645 c15 -25 -4
-53 -35 -53 -17 0 -25 6 -27 23 -7 46 38 67 62 30z m3621 -23 c0 -25 -4 -31
-27 -33 -22 -3 -29 2 -34 22 -8 34 3 48 34 44 23 -2 27 -8 27 -33z m-3744 -65
c25 -14 25 -56 -1 -70 -45 -24 -86 44 -42 69 21 13 20 13 43 1z m483 -21 c60
-29 113 -89 127 -143 36 -132 -53 -276 -169 -276 -56 0 -104 29 -127 76 -21
45 -12 86 27 119 36 30 82 32 123 5 70 -46 81 -6 14 54 -51 47 -106 63 -159
47 -182 -54 -186 -338 -7 -434 34 -18 58 -22 132 -22 82 0 97 3 155 32 53 27
74 45 116 101 l51 69 14 -121 c21 -182 18 -247 -13 -288 -31 -41 -122 -91
-197 -108 -33 -8 -90 -11 -146 -8 -106 6 -187 37 -264 102 -113 95 -190 258
-190 401 0 153 92 318 214 383 93 49 215 53 299 11z m3071 17 c28 -7 65 -21
84 -30 57 -30 130 -112 164 -184 30 -63 31 -74 32 -187 0 -91 -4 -132 -18
-170 -81 -223 -245 -345 -462 -345 -122 0 -212 30 -284 95 -31 29 -40 44 -45
84 -6 47 9 310 20 341 3 9 15 -3 33 -35 58 -100 149 -155 268 -163 122 -8 217
41 259 133 33 70 33 173 0 235 -53 102 -172 128 -260 59 -29 -23 -61 -77 -52
-87 4 -3 27 4 51 16 59 29 97 28 132 -2 24 -21 28 -32 28 -75 0 -43 -4 -55
-32 -82 -24 -25 -42 -33 -80 -36 -108 -11 -195 82 -196 207 -1 165 174 276
358 226z m305 0 c6 -8 10 -25 8 -38 -2 -18 -10 -24 -36 -26 -38 -4 -51 16 -34
54 13 27 43 32 62 10z m-3938 -142 c11 -22 10 -28 -7 -40 -35 -26 -75 -11 -75
28 0 40 65 50 82 12z m4038 6 c23 -44 -29 -80 -64 -44 -19 19 -19 19 -4 44 16
26 54 26 68 0z m-4100 -150 c23 -44 -29 -80 -64 -44 -21 20 -20 41 2 53 27 16
50 13 62 -9z m4164 -2 c23 -37 -35 -76 -70 -48 -19 17 -18 47 4 59 24 15 53 9
66 -11z m-2482 -25 c9 -10 26 -38 38 -63 29 -58 48 -82 99 -124 l42 -35 -27
-7 c-40 -10 -128 13 -174 47 -78 57 -101 129 -55 174 28 29 56 32 77 8z m816
-25 c15 -15 16 -73 0 -101 -15 -29 -34 -44 -85 -67 -44 -20 -180 -43 -196 -33
-5 3 19 23 52 45 33 21 86 68 117 104 57 64 86 78 112 52z m1679 -126 c7 -31
-7 -56 -36 -60 -47 -7 -67 42 -32 77 25 25 59 17 68 -17z m-4179 -5 c4 -34
-13 -57 -42 -57 -29 0 -46 18 -46 50 0 36 8 41 50 38 30 -3 35 -7 38 -31z m22
-171 c15 -19 9 -56 -11 -69 -9 -5 -28 -7 -42 -3 -23 5 -27 12 -27 40 0 19 6
37 13 39 24 10 55 7 67 -7z m4129 -10 c18 -33 0 -66 -37 -66 -33 0 -52 16 -52
45 0 48 67 64 89 21z m-4037 -163 c22 -20 24 -66 2 -87 -23 -24 -70 -20 -88 6
-23 32 -20 54 10 77 32 25 51 26 76 4z m3940 5 c9 -7 18 -25 22 -40 12 -53
-55 -89 -96 -51 -52 47 19 134 74 91z m-122 -158 c39 -39 20 -97 -37 -114 -43
-13 -91 61 -65 100 10 16 44 33 65 34 9 0 26 -9 37 -20z m-3492 -86 c27 -18
30 -69 5 -96 -23 -26 -78 -24 -97 4 -23 33 -19 64 10 87 32 25 52 26 82 5z
m3302 -4 c25 -25 26 -72 1 -94 -28 -26 -82 -18 -100 15 -36 65 46 132 99 79z
m-2905 -15 c27 -26 31 -46 14 -76 -24 -46 -90 -45 -115 3 -24 47 5 89 69 97 4
1 19 -10 32 -24z m2496 14 c47 -24 43 -100 -6 -119 -76 -29 -127 76 -56 115
32 17 37 18 62 4z m-2687 -35 c21 -20 20 -73 -1 -96 -24 -27 -68 -23 -92 8
-27 34 -26 50 4 79 28 28 66 32 89 9z m2890 0 c21 -20 20 -73 -1 -96 -24 -27
-68 -23 -92 8 -27 34 -26 52 1 81 25 27 69 30 92 7z m-2203 -64 c11 0 39 -54
39 -75 0 -25 -46 -65 -75 -65 -32 0 -75 41 -75 73 0 36 56 81 88 71 8 -2 18
-4 23 -4z m1533 -22 c22 -31 20 -68 -6 -95 -49 -53 -127 -9 -119 67 6 48 97
68 125 28z m-1611 -185 c45 -51 17 -123 -48 -123 -37 0 -75 37 -75 73 0 54 87
89 123 50z m1702 -13 c20 -38 19 -52 -6 -84 -24 -30 -63 -34 -97 -10 -16 11
-22 25 -22 54 0 46 26 70 77 70 26 0 36 -6 48 -30z m-1692 -192 c23 -18 32
-69 15 -90 -24 -31 -64 -33 -92 -4 -31 31 -32 45 -5 80 22 28 55 34 82 14z
m1657 -8 c44 -44 7 -118 -52 -106 -58 12 -74 61 -33 101 29 30 58 32 85 5z
m-2248 -122 c24 -19 6 -60 -24 -56 -26 3 -35 32 -18 53 15 18 22 19 42 3z
m616 -54 c34 -23 27 -83 -10 -104 -25 -13 -31 -13 -55 0 -38 21 -45 81 -11
104 12 9 29 16 38 16 9 0 26 -7 38 -16z m1607 -9 c14 -13 25 -31 25 -40 0 -23
-45 -65 -70 -65 -41 0 -75 62 -52 96 9 14 44 33 60 34 7 0 24 -11 37 -25z
m-2317 -14 c8 -4 12 -19 10 -32 -4 -34 -63 -41 -73 -9 -12 37 28 63 63 41z
m3000 -7 c16 -29 3 -54 -28 -54 -32 0 -45 22 -30 51 13 23 46 25 58 3z m-3064
-107 c28 -20 18 -61 -16 -65 -34 -4 -54 27 -38 58 12 23 29 25 54 7z m3126
-13 c7 -19 7 -31 -1 -40 -22 -27 -69 -10 -69 26 0 43 55 54 70 14z m-2318 -41
c37 -33 17 -83 -34 -83 -43 0 -64 53 -32 84 20 21 43 20 66 -1z m1520 5 c28
-22 31 -55 9 -77 -26 -26 -46 -26 -71 -1 -11 11 -20 27 -20 35 0 18 35 55 53
55 7 0 20 -6 29 -12z m-2328 -94 c17 -44 -5 -71 -45 -59 -22 7 -25 45 -7 63
17 17 45 15 52 -4z m3136 -4 c8 -14 8 -26 0 -40 -18 -33 -70 -23 -70 14 0 45
50 63 70 26z m-2342 -62 c7 -7 12 -21 12 -33 0 -44 -60 -63 -80 -26 -14 27
-13 37 6 55 18 19 45 21 62 4z m1552 -3 c19 -23 4 -64 -26 -71 -40 -10 -71 45
-42 74 17 17 53 15 68 -3z m-2316 -67 c14 -23 -3 -52 -32 -56 -29 -4 -51 40
-32 63 16 20 49 16 64 -7z m3076 7 c26 -32 -13 -81 -47 -59 -35 22 -23 74 17
74 10 0 23 -7 30 -15z m-2374 -72 c4 -14 2 -33 -3 -42 -14 -22 -53 -20 -69 4
-12 18 -11 24 2 43 22 32 62 29 70 -5z m1683 5 c21 -53 -44 -90 -75 -43 -16
24 -16 27 1 45 25 27 63 26 74 -2z m-2325 -34 c35 -14 8 -74 -33 -74 -19 0
-33 38 -21 60 11 21 27 25 54 14z m2946 -13 c15 -28 13 -39 -10 -51 -40 -22
-80 26 -48 58 18 18 46 14 58 -7z m-2416 -37 c30 -30 13 -74 -29 -74 -12 0
-26 5 -33 12 -7 7 -12 21 -12 33 0 42 44 59 74 29z m1890 10 c27 -10 20 -62
-9 -76 -30 -13 -55 3 -55 36 0 37 27 54 64 40z m-2304 -44 c15 -28 -22 -65
-50 -50 -19 10 -27 49 -13 63 14 14 53 6 63 -13z m2730 -14 c0 -38 -14 -48
-47 -35 -15 5 -23 17 -23 32 0 31 7 37 42 37 25 0 28 -3 28 -34z m-2449 -17
c18 -34 -4 -71 -38 -67 -34 4 -54 48 -33 72 18 23 57 20 71 -5z m2167 9 c26
-26 7 -78 -28 -78 -9 0 -25 9 -35 20 -37 41 24 97 63 58z m-2318 -13 c15 -19
6 -61 -16 -69 -42 -16 -82 35 -54 69 16 19 54 19 70 0z m2470 1 c19 -24 8 -60
-22 -70 -23 -8 -31 -6 -43 10 -18 23 -19 46 -3 62 16 16 53 15 68 -2z m-1785
-77 c9 -26 -15 -52 -38 -43 -17 6 -23 44 -10 57 14 14 42 6 48 -14z m1083 -2
c6 -30 -5 -46 -28 -40 -27 7 -36 29 -20 49 17 19 44 14 48 -9z m-1193 -37 c0
-29 -4 -36 -23 -38 -43 -6 -69 37 -40 66 7 7 24 12 38 10 21 -3 25 -8 25 -38z
m1317 15 c19 -41 -28 -75 -60 -43 -13 13 -16 50 -5 61 16 17 54 6 65 -18z
m-1421 -75 c26 -14 24 -55 -3 -74 -19 -13 -25 -14 -43 -2 -24 16 -31 51 -15
72 15 17 34 18 61 4z m1524 -14 c22 -33 5 -66 -33 -66 -49 0 -69 42 -36 74 23
23 51 20 69 -8z m-1565 -136 c11 -11 20 -27 20 -35 0 -17 -35 -55 -49 -55 -5
0 -21 4 -35 10 -31 11 -35 53 -9 82 21 24 48 23 73 -2z m1600 10 c34 -18 44
-48 25 -76 -18 -28 -51 -31 -77 -7 -22 20 -23 51 -1 75 19 21 27 22 53 8z
m-1546 -182 c9 -12 16 -28 16 -35 0 -21 -31 -43 -60 -43 -35 0 -59 45 -40 79
15 29 64 28 84 -1z m1520 -11 c13 -37 -2 -61 -42 -65 -26 -3 -33 2 -47 28 -15
30 -15 33 1 51 27 30 76 22 88 -14z m-1402 -84 c34 -31 10 -93 -37 -93 -29 0
-45 19 -45 53 0 49 47 72 82 40z m1277 -14 c13 -24 13 -29 -2 -53 -22 -33 -60
-34 -81 -4 -21 30 -20 44 5 69 26 26 59 21 78 -12z"/>
</g>
</svg>
